<?xml version="1.0" standalone="no"?>
<!DOCTYPE svg PUBLIC "-//W3C//DTD SVG 20010904//EN"
 "http://www.w3.org/TR/2001/REC-SVG-20010904/DTD/svg10.dtd">
<svg version="1.0" xmlns="http://www.w3.org/2000/svg"
 width="1024.000000pt" height="1024.000000pt" viewBox="0 0 1024.000000 1024.000000"
 preserveAspectRatio="xMidYMid meet">
<metadata>
Created by potrace 1.16, written by Peter Selinger 2001-2019
</metadata>
<g transform="translate(0.000000,1024.000000) scale(0.100000,-0.100000)"
fill="#d4a84a" stroke="none">
<path fill="#d4a84a" stroke="none" d="M0 5120 l0 -5120 5120 0 5120 0 0 5120
0 5120 -5120 0 -5120 0 0 -5120z"/>
<path fill="#d4a84a" stroke="none" d="M5335 9810 c375 -14 600 -48 983 -147
457 -118 965 -349 1396 -636 471 -313 880 -708 1212 -1168 62 -86 224 -335
224 -345 0 -2 18 -33 40 -69 48 -79 197 -374 234 -465 15 -36 31 -74 36 -85
57 -130 178 -501 216 -670 91 -393 128 -709 128 -1080 0 -417 -53 -853 -144
-1185 -5 -19 -19 -71 -31 -115 -23 -84 -122 -386 -139 -420 -5 -11 -34 -81
-66 -155 -107 -255 -273 -562 -413 -765 -19 -27 -55 -79 -80 -115 -254 -372
-675 -797 -1061 -1073 -163 -116 -170 -121 -323 -213 -609 -367 -1304 -592
-2042 -660 -38 -4 -79 -8 -90 -10 -154 -28 -302 -31 -297 -6 3 17 -40 15 -64
-3 -19 -14 -124 -21 -137 -9 -3 4 -28 8 -54 9 -26 1 -86 7 -133 13 -47 6 -134
16 -195 22 -360 37 -817 154 -1185 303 -130 53 -373 163 -435 197 -47 26 -195
108 -255 142 -131 74 -383 254 -570 407 -223 183 -555 530 -741 776 -323 425
-604 981 -754 1490 -81 277 -130 523 -172 865 -25 206 -25 734 0 944 55 460
104 688 222 1036 65 191 66 195 136 360 86 201 207 434 311 599 119 188 153
238 263 386 169 225 446 522 660 706 220 189 571 435 789 554 127 68 391 199
467 230 35 14 78 32 94 39 29 13 240 88 335 120 61 20 204 58 380 101 74 18
271 52 345 60 33 3 92 11 130 16 174 25 449 32 780 19z"/>
</g>
</svg>
